<svg width="634" height="420" viewBox="0 0 634 420" fill="none" xmlns="http://www.w3.org/2000/svg">
<g clip-path="url(#clip0_105_2)">
<path fill-rule="evenodd" clip-rule="evenodd" d="M594.83 272.66C576.09 272.66 560.76 287.99 560.76 306.73C560.76 340.91 532.79 368.88 498.61 368.88H80.74C36.33 368.88 0 332.55 0 288.14C0 243.73 36.33 207.4 80.74 207.4H82.86C91.77 207.4 99.06 200.11 99.06 191.2C99.06 182.29 91.77 175 82.86 175H73.95C52.28 175 34.56 157.28 34.56 135.61C34.56 113.97 52.24 96.26 73.87 96.22H112.3C131.03 96.22 146.36 80.89 146.36 62.16C146.36 27.97 174.33 0.0100098 208.51 0.0100098H526.12C570.53 0.0100098 606.86 36.35 606.86 80.75C606.86 125.16 570.53 161.49 526.12 161.49C517.21 161.49 509.92 168.78 509.92 177.69C509.92 186.6 517.21 193.89 526.12 193.89H594.81C646.35 193.89 646.35 272.67 594.81 272.67L594.83 272.66Z" fill="#5E50A1"/>
<path fill-rule="evenodd" clip-rule="evenodd" d="M591.13 266.96C607.66 266.96 621.15 253.48 621.15 236.95C621.15 220.42 607.67 206.94 591.13 206.94C574.59 206.94 561.12 220.42 561.12 236.95C561.12 253.48 574.6 266.96 591.13 266.96Z" fill="#A0C0D5"/>
<path fill-rule="evenodd" clip-rule="evenodd" d="M85.2901 224.34C96.0501 200.69 116.83 218.18 123.14 241.04C129.12 262.71 137.28 341.56 151.71 370.73L144.76 373.26C113.57 340.48 71.5101 254.61 85.2801 224.34H85.2901Z" fill="#63A9BA"/>
<path fill-rule="evenodd" clip-rule="evenodd" d="M147.32 372.33C108.41 316.93 98.4301 224.39 98.4001 224.08C98.3401 223.51 98.7501 222.99 99.3201 222.92C99.8901 222.86 100.41 223.27 100.48 223.84C100.52 224.15 110.5 316.8 149.33 371.59L147.32 372.32V372.33Z" fill="#80B9C9"/>
<path fill-rule="evenodd" clip-rule="evenodd" d="M74.05 299.18C53.8 297.91 58.22 318.66 71.65 331.4C80.74 340.02 109.49 360.11 130.59 378.41L145.13 373.11C127.52 340.21 94.98 300.48 74.05 299.17V299.18Z" fill="#3A7F80"/>
<path fill-rule="evenodd" clip-rule="evenodd" d="M139.94 375.01C112.22 337.47 69.2201 308.23 69.0501 308.12C68.6801 307.87 68.1701 307.96 67.9201 308.33C67.6701 308.7 67.7601 309.21 68.1301 309.47C68.3001 309.59 110.85 338.52 138.36 375.59L139.94 375.02V375.01Z" fill="#51A5A5"/>
<path fill-rule="evenodd" clip-rule="evenodd" d="M47.11 365.75H607.81C614.34 365.75 619.68 371.1 619.68 377.62C619.68 384.15 614.34 389.49 607.81 389.49H567.76C564.13 389.49 561.17 392.46 561.17 396.08C561.17 399.71 564.14 402.67 567.76 402.67H582.41C586.94 402.67 590.65 406.38 590.65 410.91C590.65 415.44 586.94 419.15 582.41 419.15H73.82C69.29 419.15 65.58 415.44 65.58 410.91C65.58 406.38 69.29 402.67 73.82 402.67H85.36C88.99 402.67 91.95 399.7 91.95 396.08C91.95 392.45 88.98 389.49 85.36 389.49H47.11C40.58 389.49 35.24 384.15 35.24 377.62C35.24 371.09 40.59 365.75 47.11 365.75ZM53.29 419.17C57.64 419.17 61.2 415.61 61.2 411.26V410.6C61.2 406.25 57.64 402.68 53.29 402.68C48.94 402.68 45.38 406.24 45.38 410.6V411.26C45.38 415.61 48.94 419.17 53.29 419.17Z" fill="#FBB017"/>
<path fill-rule="evenodd" clip-rule="evenodd" d="M362.11 26.48H302.18C301.26 26.48 300.52 27.25 300.52 28.19V66.24C300.52 67.18 301.27 67.96 302.18 67.96H362.11C363.03 67.96 363.77 67.19 363.77 66.24V28.2C363.77 27.26 363.02 26.49 362.11 26.49V26.48Z" fill="#EC6D3B"/>
<path fill-rule="evenodd" clip-rule="evenodd" d="M362.11 26.48H302.18C301.27 26.48 300.52 27.25 300.52 28.19V29.65L328.15 55.94C332.61 60.19 331.29 60.56 335.65 56.42L363.78 29.65V28.19C363.78 27.25 363.03 26.48 362.12 26.48H362.11Z" fill="#EC6D3B"/>
<path fill-rule="evenodd" clip-rule="evenodd" d="M300.51 64.6V66.24C300.51 67.18 301.26 67.96 302.17 67.96H362.1C363.02 67.96 363.76 67.19 363.76 66.24V64.6L335.41 39.87C331.33 36.31 332.56 36.63 328.38 40.28L300.5 64.6H300.51Z" fill="#EC6D3B"/>
<path fill-rule="evenodd" clip-rule="evenodd" d="M300.55 66.62C300.71 67.39 301.38 67.97 302.17 67.97H362.1C362.89 67.97 363.56 67.39 363.73 66.62L335.1 41.65C331.41 38.43 332.53 38.72 328.75 42.02L300.55 66.62Z" fill="#F4A63D"/>
<path fill-rule="evenodd" clip-rule="evenodd" d="M343.49 48.96L335.11 41.65C331.42 38.43 332.54 38.72 328.76 42.02L320.81 48.96L328.15 55.95C332.61 60.2 331.29 60.57 335.65 56.43L343.5 48.96H343.49Z" fill="#EC6D3B"/>
<path fill-rule="evenodd" clip-rule="evenodd" d="M362.11 26.48H302.18C301.63 26.48 301.14 26.76 300.84 27.19L328.76 53.75C332.54 57.35 331.43 57.67 335.11 54.16L363.46 27.19C363.16 26.76 362.67 26.48 362.12 26.48H362.11Z" fill="#F4A63D"/>
<path fill-rule="evenodd" clip-rule="evenodd" d="M362.06 17.4C368.18 17.4 373.14 22.36 373.14 28.48C373.14 34.6 368.18 39.56 362.06 39.56C355.94 39.56 350.98 34.6 350.98 28.48C350.98 22.36 355.94 17.4 362.06 17.4Z" fill="#E62952"/>
<path fill-rule="evenodd" clip-rule="evenodd" d="M363.89 34.68H360.78V25.93C359.65 27 358.31 27.79 356.77 28.3V25.46C357.58 25.2 358.46 24.69 359.41 23.95C360.37 23.21 361.01 22.34 361.37 21.36H363.89V34.68Z" fill="white"/>
<path fill-rule="evenodd" clip-rule="evenodd" d="M413.6 172.87C415.14 172.87 415.25 170.54 413.66 170.44C412.88 170.43 412.22 170.37 411.45 170.2C410.01 169.93 409.4 171.85 410.66 172.48C410.75 172.52 410.83 172.56 410.93 172.57C411.81 172.76 412.7 172.86 413.6 172.86V172.87ZM375.26 51.08C373.72 51.08 373.61 53.41 375.21 53.51H377.69C379.23 53.51 379.34 51.18 377.74 51.08H375.26ZM384.98 51.08C383.44 51.08 383.33 53.41 384.93 53.51H387.41C388.95 53.51 389.06 51.18 387.46 51.08H384.98ZM395.01 51.57C394.81 51.5 394.6 51.51 394.38 51.55C393.17 51.87 393.11 53.5 394.31 53.9C395.01 54.11 395.66 54.38 396.3 54.73C397.53 55.43 398.86 53.73 397.62 52.69C396.91 52.23 395.83 51.8 395.01 51.57ZM402.82 58.51C402.3 57.21 400.22 57.75 400.52 59.25C400.54 59.33 400.56 59.39 400.59 59.46C400.87 60.13 401.08 60.8 401.22 61.52C401.48 62.92 403.53 62.82 403.63 61.36C403.63 61.26 403.63 61.18 403.61 61.09C403.37 60.12 403.22 59.45 402.83 58.51H402.82ZM403.81 68.58C403.81 67.04 401.48 66.93 401.38 68.53V71.01C401.38 72.55 403.71 72.66 403.81 71.07V68.58ZM403.81 78.3C403.81 76.76 401.48 76.65 401.38 78.24V80.72C401.38 82.26 403.71 82.37 403.81 80.78V78.3ZM403.81 88.02C403.81 86.48 401.48 86.37 401.38 87.96V90.45C401.38 91.99 403.71 92.1 403.81 90.5V88.02ZM403.81 97.74C403.81 96.2 401.48 96.09 401.38 97.69V100.17C401.38 101.71 403.71 101.82 403.81 100.22V97.74ZM403.81 107.46C403.81 105.92 401.48 105.81 401.38 107.41V109.89C401.38 111.43 403.71 111.54 403.81 109.95V107.46ZM403.81 117.18C403.81 115.64 401.48 115.53 401.38 117.13V119.61C401.38 121.15 403.71 121.26 403.81 119.66V117.18ZM403.81 126.9C403.81 125.36 401.48 125.25 401.38 126.84V129.32C401.38 130.86 403.71 130.97 403.81 129.38V126.9ZM403.81 136.62C403.81 135.08 401.48 134.97 401.38 136.57V139.05C401.38 140.59 403.71 140.7 403.81 139.1V136.62ZM403.81 146.34C403.81 144.8 401.48 144.69 401.38 146.29V148.77C401.38 150.31 403.71 150.42 403.81 148.82V146.33V146.34ZM403.81 156.06C403.81 154.52 401.48 154.41 401.38 156.01V158.49C401.38 160.03 403.71 160.14 403.81 158.55V156.06ZM404.86 165.04C404.74 164.8 404.54 164.62 404.31 164.5C403.24 164.01 402.18 165.11 402.7 166.15C403.11 166.95 403.6 167.71 404.17 168.4C404.59 168.91 405.33 168.98 405.85 168.58C406.4 168.16 406.48 167.37 406.04 166.85C405.58 166.3 405.18 165.68 404.86 165.04Z" fill="black"/>
<path fill-rule="evenodd" clip-rule="evenodd" d="M90.42 106.85H142.15C147.03 106.85 151.02 110.84 151.02 115.72V178.29C151.02 178.7 150.79 179.05 150.41 179.2C150.03 179.36 149.62 179.28 149.33 178.99L134.22 163.88H90.42C85.54 163.88 81.55 159.89 81.55 155.01V115.73C81.55 110.85 85.54 106.86 90.42 106.86V106.85Z" fill="#E62952"/>
<path fill-rule="evenodd" clip-rule="evenodd" d="M116.28 115.07C121.61 115.07 126.67 117.17 130.44 120.93C134.21 124.7 136.3 129.76 136.3 135.08C136.3 140.4 134.2 145.47 130.44 149.23C126.67 153 121.61 155.09 116.28 155.09C110.95 155.09 105.89 152.99 102.13 149.23C98.36 145.46 96.27 140.4 96.27 135.08C96.27 129.76 98.37 124.69 102.13 120.93C105.9 117.16 110.96 115.07 116.28 115.07ZM134.13 136.16H125.96C125.91 138.33 125.69 140.51 125.28 142.65C127.33 143.13 129.42 143.84 131.28 144.84C132.98 142.24 133.95 139.26 134.14 136.16H134.13ZM123.83 136.16H117.35V141.66C119.3 141.71 121.26 141.89 123.19 142.22C123.57 140.23 123.77 138.19 123.83 136.16ZM115.22 136.16H108.74C108.79 138.19 108.99 140.23 109.37 142.22C111.3 141.89 113.26 141.71 115.21 141.66V136.16H115.22ZM106.61 136.16H98.44C98.62 139.26 99.6 142.24 101.3 144.84C103.16 143.84 105.24 143.13 107.29 142.65C106.88 140.52 106.66 138.33 106.61 136.16ZM98.44 134.02H106.61C106.65 132.18 106.82 130.33 107.12 128.51C104.96 127.99 102.75 127.22 100.83 126.1C99.42 128.52 98.61 131.23 98.44 134.02ZM109.21 128.95C108.94 130.63 108.79 132.33 108.75 134.02H115.23V129.54C113.22 129.49 111.2 129.3 109.21 128.95ZM123.38 128.95C121.4 129.3 119.38 129.49 117.37 129.54V134.02H123.85C123.8 132.32 123.66 130.62 123.39 128.95H123.38ZM125.98 134.02H134.15C133.98 131.22 133.17 128.52 131.76 126.1C129.84 127.22 127.62 127.99 125.47 128.51C125.77 130.33 125.93 132.18 125.98 134.02ZM117.37 117.4V127.4C119.25 127.35 121.13 127.17 122.98 126.85C122.61 125.24 122.11 123.63 121.43 122.13C120.67 120.46 119.27 118.09 117.37 117.4ZM117.37 143.79V152.77C119.27 152.08 120.67 149.71 121.43 148.04C121.98 146.84 122.4 145.57 122.74 144.3C120.97 144 119.17 143.84 117.37 143.79ZM115.23 152.77V143.79C113.43 143.84 111.63 144 109.86 144.3C110.19 145.58 110.62 146.85 111.17 148.04C111.93 149.71 113.33 152.08 115.23 152.77ZM115.23 127.4V117.4C113.33 118.09 111.93 120.46 111.17 122.13C110.49 123.63 109.99 125.24 109.62 126.85C111.47 127.18 113.35 127.35 115.23 127.4ZM102.02 124.31C103.71 125.27 105.65 125.94 107.53 126.4C107.93 124.64 108.48 122.88 109.23 121.24C109.75 120.1 110.4 118.94 111.21 117.94C108.37 118.78 105.77 120.33 103.66 122.44C103.07 123.03 102.53 123.65 102.03 124.31H102.02ZM125.06 126.4C126.94 125.94 128.88 125.27 130.57 124.31C130.07 123.65 129.53 123.02 128.94 122.44C126.83 120.33 124.23 118.78 121.39 117.94C122.2 118.95 122.85 120.1 123.37 121.24C124.12 122.88 124.67 124.64 125.06 126.4ZM130 146.56C128.38 145.72 126.59 145.13 124.82 144.72C124.45 146.16 123.97 147.57 123.36 148.92C122.84 150.06 122.19 151.22 121.38 152.22C124.22 151.38 126.82 149.83 128.93 147.72C129.3 147.35 129.66 146.96 129.99 146.56H130ZM107.76 144.72C106 145.13 104.2 145.73 102.58 146.56C102.92 146.96 103.27 147.35 103.64 147.72C105.75 149.83 108.35 151.38 111.19 152.22C110.38 151.21 109.73 150.05 109.21 148.92C108.6 147.57 108.12 146.15 107.75 144.72H107.76Z" fill="white"/>
<path fill-rule="evenodd" clip-rule="evenodd" d="M598.61 307.76C597.05 306.2 594.9 305.24 592.53 305.24C590.16 305.24 588.01 306.2 586.45 307.76C584.9 309.32 583.93 311.47 583.93 313.84C583.93 316.21 584.89 318.36 586.45 319.92C588.01 321.48 590.16 322.44 592.53 322.44C594.9 322.44 597.05 321.48 598.61 319.92C600.16 318.36 601.13 316.21 601.13 313.84C601.13 311.47 600.17 309.32 598.61 307.76ZM596.75 299.24C597.94 299.58 599.07 300.07 600.12 300.68C601.2 301.3 602.19 302.05 603.08 302.91C603.25 303.08 603.51 303.1 603.71 302.99L607.71 300.68H607.73C607.96 300.54 608.22 300.52 608.46 300.59C608.71 300.65 608.93 300.81 609.06 301.05L609.08 301.08L611.89 305.95C612.02 306.19 612.05 306.46 611.98 306.7C611.91 306.94 611.76 307.16 611.52 307.3L611.49 307.32L607.53 309.61C607.32 309.73 607.23 309.97 607.28 310.19C607.43 310.78 607.54 311.39 607.61 312.01C607.68 312.62 607.72 313.23 607.72 313.86C607.72 314.49 607.68 315.11 607.61 315.71C607.53 316.33 607.42 316.94 607.28 317.53C607.22 317.78 607.34 318.02 607.56 318.13L611.52 320.42C611.75 320.56 611.91 320.78 611.98 321.02C612.05 321.27 612.02 321.54 611.89 321.77L609.06 326.67C608.92 326.9 608.7 327.06 608.46 327.13C608.21 327.2 607.94 327.17 607.71 327.03L607.68 327.01L603.71 324.72C603.5 324.6 603.25 324.64 603.08 324.8C602.19 325.66 601.2 326.41 600.12 327.03C599.07 327.64 597.93 328.13 596.73 328.47C596.5 328.54 596.35 328.75 596.35 328.98V333.59C596.35 333.86 596.24 334.11 596.06 334.29C595.88 334.47 595.63 334.58 595.36 334.58H589.71C589.44 334.58 589.19 334.47 589.01 334.29C588.83 334.11 588.72 333.86 588.72 333.59V328.98C588.72 328.73 588.55 328.52 588.31 328.47C587.12 328.13 585.99 327.64 584.94 327.03C583.86 326.41 582.87 325.66 581.98 324.8C581.8 324.63 581.52 324.61 581.32 324.74L577.35 327.03C577.12 327.17 576.84 327.19 576.6 327.13C576.35 327.06 576.13 326.91 576 326.67L575.98 326.64L573.17 321.77C573.03 321.54 573.01 321.27 573.07 321.02C573.13 320.77 573.29 320.55 573.53 320.42L577.52 318.12C577.73 318 577.82 317.76 577.77 317.54C577.62 316.95 577.51 316.34 577.44 315.72C577.37 315.12 577.33 314.5 577.33 313.87C577.33 313.24 577.37 312.62 577.44 312.02C577.52 311.4 577.63 310.79 577.77 310.2C577.83 309.96 577.71 309.71 577.49 309.6L573.53 307.31C573.3 307.18 573.14 306.96 573.07 306.71C573 306.46 573.03 306.19 573.17 305.96V305.93L576 301.06C576.14 300.83 576.36 300.67 576.6 300.6C576.84 300.53 577.12 300.56 577.35 300.69L581.35 303C581.56 303.12 581.83 303.08 581.99 302.91C582.88 302.06 583.86 301.31 584.94 300.69C585.99 300.08 587.13 299.59 588.33 299.25C588.56 299.18 588.71 298.97 588.71 298.74V294.13C588.71 293.86 588.82 293.61 589 293.43C589.18 293.25 589.43 293.14 589.7 293.14H595.35C595.62 293.14 595.87 293.25 596.05 293.43C596.23 293.61 596.34 293.86 596.34 294.13V298.74C596.34 298.99 596.51 299.2 596.75 299.25V299.24Z" fill="#AFCADC"/>
<path fill-rule="evenodd" clip-rule="evenodd" d="M587.38 263.53C603.91 263.53 617.4 250.05 617.4 233.52C617.4 216.99 603.92 203.51 587.38 203.51C570.84 203.51 557.37 216.99 557.37 233.52C557.37 250.05 570.85 263.53 587.38 263.53Z" fill="white"/>
<path fill-rule="evenodd" clip-rule="evenodd" d="M587.38 241.33C588.72 241.33 589.99 241.86 590.93 242.8C591.88 243.74 592.4 245.02 592.4 246.35C592.4 247.68 591.87 248.96 590.93 249.9C589.99 250.85 588.72 251.37 587.38 251.37C586.04 251.37 584.77 250.84 583.83 249.9C582.89 248.95 582.36 247.68 582.36 246.35C582.36 245.02 582.89 243.74 583.83 242.8C584.77 241.86 586.05 241.33 587.38 241.33ZM568.2 228.42C567.36 229.31 565.96 229.36 565.06 228.53C564.16 227.7 564.11 226.29 564.95 225.39C567.82 222.31 571.31 219.85 575.17 218.18C579.03 216.5 583.18 215.65 587.38 215.65C591.58 215.65 595.73 216.51 599.59 218.18C603.45 219.86 606.93 222.32 609.81 225.39C610.65 226.29 610.6 227.69 609.7 228.53C608.8 229.36 607.4 229.31 606.56 228.42C604.1 225.79 601.13 223.68 597.83 222.25C594.53 220.82 590.98 220.09 587.38 220.09C583.78 220.09 580.23 220.81 576.93 222.25C573.63 223.68 570.66 225.79 568.2 228.42ZM574.04 233.87C575.75 232.04 577.82 230.58 580.11 229.58C582.41 228.58 584.88 228.08 587.38 228.08C589.88 228.08 592.35 228.58 594.65 229.58C596.95 230.58 599.02 232.04 600.72 233.87C601.56 234.76 602.96 234.82 603.86 233.98C604.76 233.14 604.81 231.74 603.97 230.84C601.85 228.57 599.27 226.75 596.41 225.51C593.56 224.27 590.49 223.63 587.38 223.63C584.27 223.63 581.2 224.26 578.35 225.51C575.49 226.75 572.92 228.57 570.79 230.84C569.95 231.74 570 233.14 570.9 233.98C571.8 234.81 573.2 234.76 574.04 233.87ZM580.73 240.12C579.9 241.02 578.49 241.07 577.59 240.23C576.69 239.4 576.64 237.99 577.48 237.09C578.75 235.73 580.29 234.65 581.99 233.91C583.7 233.17 585.53 232.79 587.38 232.79C589.23 232.79 591.07 233.17 592.77 233.91C594.48 234.65 596.02 235.73 597.28 237.09C598.11 237.99 598.06 239.39 597.17 240.23C596.27 241.07 594.87 241.01 594.03 240.12C593.18 239.21 592.15 238.48 591 237.98C589.85 237.48 588.62 237.23 587.37 237.23C586.12 237.23 584.89 237.48 583.74 237.98C582.59 238.48 581.57 239.21 580.71 240.12H580.73Z" fill="#E62952"/>
<path fill-rule="evenodd" clip-rule="evenodd" d="M110.59 33.67C109.15 32.23 107.42 31.07 105.5 30.27C103.65 29.5 101.63 29.08 99.5099 29.08C97.3899 29.08 95.3699 29.5 93.5199 30.27C91.5999 31.07 89.8699 32.23 88.4299 33.67C86.9899 35.11 85.8199 36.84 85.0299 38.76C84.2599 40.61 83.8399 42.63 83.8399 44.75C83.8399 46.87 84.2599 48.89 85.0299 50.74C85.8199 52.66 86.9899 54.39 88.4299 55.83C89.8699 57.27 91.5999 58.44 93.5199 59.23C95.3699 60 97.3899 60.42 99.5099 60.42C101.63 60.42 103.65 60 105.5 59.23C107.42 58.43 109.15 57.27 110.59 55.83C112.03 54.39 113.2 52.66 113.99 50.74C114.76 48.89 115.18 46.87 115.18 44.75C115.18 42.63 114.76 40.61 113.99 38.76C113.2 36.84 112.03 35.11 110.59 33.67ZM104.95 31.61C106.68 32.33 108.25 33.39 109.56 34.7C110.87 36.01 111.93 37.58 112.65 39.31C113.34 40.98 113.72 42.82 113.72 44.75C113.72 46.68 113.34 48.52 112.65 50.19C111.93 51.93 110.87 53.49 109.56 54.8C108.25 56.11 106.68 57.17 104.95 57.89C103.28 58.58 101.44 58.97 99.5099 58.97C97.5799 58.97 95.7399 58.59 94.0699 57.89C92.3299 57.17 90.7699 56.11 89.4499 54.8C88.1399 53.49 87.0799 51.92 86.3599 50.19C85.6699 48.52 85.2899 46.68 85.2899 44.75C85.2899 42.82 85.6699 40.98 86.3599 39.31C87.0799 37.58 88.1399 36.01 89.4499 34.7C90.7599 33.39 92.3299 32.33 94.0599 31.61C95.7299 30.92 97.5699 30.54 99.4999 30.54C101.43 30.54 103.27 30.92 104.94 31.61H104.95ZM106.68 20.08C107.66 20.37 108.63 20.71 109.57 21.11C110.53 21.52 111.45 21.98 112.34 22.49C113.24 23.01 114.12 23.59 114.96 24.22C115.8 24.85 116.6 25.53 117.35 26.26C117.62 26.52 117.95 26.67 118.29 26.71C118.64 26.75 119 26.68 119.31 26.5C121.61 25.17 124.03 23.86 126.29 22.47C126.4 22.41 126.51 22.38 126.63 22.37C126.76 22.35 126.89 22.37 127.01 22.4C127.14 22.44 127.26 22.49 127.36 22.57C127.46 22.65 127.55 22.74 127.61 22.86C129.29 25.4 130.97 28.68 132.53 31.37C132.6 31.48 132.64 31.61 132.65 31.73C132.67 31.86 132.65 32 132.62 32.13C132.59 32.26 132.53 32.38 132.45 32.48C132.37 32.58 132.28 32.67 132.16 32.73C130.09 34.1 127.42 35.47 125.23 36.73C124.91 36.91 124.67 37.19 124.54 37.51C124.49 37.62 124.46 37.73 124.44 37.85L124.3 37.9L124.46 38.55C124.58 39.06 124.69 39.57 124.79 40.07C124.88 40.56 124.96 41.08 125.02 41.62C125.08 42.14 125.13 42.67 125.16 43.18C125.19 43.68 125.21 44.21 125.21 44.76C125.21 45.31 125.19 45.83 125.16 46.34C125.13 46.85 125.08 47.37 125.02 47.9C124.95 48.44 124.88 48.95 124.79 49.44C124.7 49.95 124.59 50.46 124.46 50.97C124.37 51.35 124.41 51.72 124.56 52.05C124.71 52.38 124.97 52.65 125.3 52.82L131.44 56.36L132.17 56.78C132.29 56.85 132.38 56.93 132.46 57.03C132.54 57.13 132.6 57.25 132.63 57.38C132.66 57.51 132.68 57.65 132.66 57.78C132.64 57.9 132.6 58.03 132.54 58.14L128 66.02L127.63 66.65C127.56 66.77 127.48 66.86 127.38 66.94C127.28 67.02 127.16 67.08 127.03 67.11C126.9 67.15 126.77 67.15 126.64 67.14C126.52 67.12 126.4 67.08 126.28 67.02C124.08 65.64 121.6 64.32 119.33 63.01C119.01 62.82 118.65 62.76 118.32 62.8C117.97 62.84 117.64 63 117.38 63.24C116.63 63.97 115.83 64.65 114.99 65.28C114.16 65.91 113.28 66.49 112.38 67.01C111.49 67.53 110.55 67.99 109.59 68.4C108.65 68.8 107.66 69.15 106.65 69.44C106.29 69.54 106 69.76 105.79 70.03C105.58 70.31 105.46 70.66 105.46 71.02V79.03C105.46 79.16 105.43 79.29 105.38 79.41C105.33 79.53 105.25 79.64 105.16 79.73C105.07 79.82 104.96 79.9 104.84 79.95C104.72 80 104.6 80.02 104.46 80.02H94.6299C94.4999 80.02 94.3699 79.99 94.2499 79.95C94.1299 79.9 94.0199 79.82 93.9299 79.73C93.8399 79.63 93.7599 79.52 93.7099 79.4C93.6599 79.29 93.6299 79.16 93.6299 79.02V71.01C93.6299 70.63 93.4999 70.28 93.2699 69.99C93.0399 69.7 92.7199 69.49 92.3599 69.41C91.3799 69.13 90.4099 68.78 89.4699 68.38C88.5099 67.97 87.5899 67.51 86.6999 66.99C85.7999 66.47 84.9199 65.89 84.0899 65.26C83.2499 64.63 82.4499 63.95 81.6999 63.22C81.4199 62.95 81.0699 62.8 80.7099 62.77C80.3399 62.73 79.9699 62.83 79.6599 63.03L72.7999 66.99C72.6899 67.06 72.5599 67.1 72.4399 67.11C72.3099 67.12 72.1799 67.11 72.0399 67.08C71.9099 67.05 71.7899 66.99 71.6899 66.91C71.5899 66.83 71.4999 66.74 71.4399 66.62C69.8099 63.78 68.1599 60.95 66.5199 58.11C66.4499 58 66.4099 57.87 66.3999 57.75C66.3799 57.62 66.3999 57.49 66.4299 57.36C66.4699 57.23 66.5199 57.11 66.5999 57.01C66.6799 56.91 66.7699 56.82 66.8799 56.76L73.8199 52.75C74.1399 52.57 74.3799 52.29 74.5099 51.97C74.5499 51.89 74.5799 51.8 74.5999 51.71L74.7799 51.67L74.5999 50.93C74.4699 50.42 74.3599 49.91 74.2699 49.41C74.1799 48.92 74.0999 48.4 74.0299 47.86C73.9699 47.33 73.9199 46.81 73.8899 46.3C73.8599 45.8 73.8399 45.27 73.8399 44.72C73.8399 44.17 73.8599 43.65 73.8899 43.15C73.9199 42.64 73.9699 42.11 74.0299 41.59C74.0999 41.05 74.1799 40.53 74.2699 40.04C74.3599 39.53 74.4699 39.03 74.5999 38.52C74.6899 38.14 74.6499 37.76 74.4999 37.44C74.3499 37.11 74.0899 36.84 73.7599 36.67L66.8899 32.7C66.7799 32.64 66.6799 32.55 66.5999 32.45C66.5199 32.35 66.4699 32.23 66.4299 32.1C66.3999 31.97 66.3899 31.84 66.3999 31.71C66.4199 31.58 66.4599 31.46 66.5199 31.35C68.1999 28.85 69.8799 25.52 71.4399 22.84C71.5099 22.72 71.5899 22.63 71.6899 22.55C71.7899 22.47 71.9099 22.41 72.0399 22.38C72.1699 22.35 72.3099 22.34 72.4399 22.35C72.5599 22.36 72.6799 22.41 72.7999 22.47L79.7399 26.48C80.0599 26.67 80.4299 26.74 80.7799 26.69C81.1299 26.64 81.4599 26.48 81.7199 26.23C82.4699 25.5 83.2699 24.82 84.0999 24.2C84.9299 23.58 85.7899 23 86.6999 22.48C87.5999 21.96 88.5299 21.5 89.4899 21.09C90.4399 20.69 91.4199 20.34 92.4299 20.05C92.7899 19.95 93.0799 19.74 93.2899 19.46C93.4999 19.18 93.6199 18.83 93.6199 18.47V10.46C93.6199 10.33 93.6499 10.2 93.6999 10.08C93.7499 9.96001 93.8299 9.85001 93.9199 9.76001C94.0099 9.67001 94.1199 9.59001 94.2399 9.54001C94.3599 9.49001 94.4799 9.47001 94.6199 9.47001H104.45C104.59 9.47001 104.71 9.49001 104.83 9.54001C104.95 9.59001 105.06 9.67001 105.15 9.76001C105.33 9.94001 105.44 10.19 105.44 10.46V18.47C105.44 18.85 105.57 19.21 105.79 19.49C106.02 19.78 106.34 19.99 106.7 20.07L106.68 20.08ZM110.14 19.78C111.15 20.21 112.13 20.7 113.07 21.24C114.03 21.8 114.95 22.41 115.83 23.07C116.71 23.73 117.55 24.45 118.35 25.22C118.38 25.25 118.42 25.27 118.46 25.27C118.5 25.27 118.55 25.27 118.58 25.25C120.91 23.9 123.25 22.56 125.58 21.2C125.86 21.05 126.16 20.96 126.46 20.93C126.77 20.89 127.08 20.92 127.38 21C127.68 21.08 127.98 21.22 128.24 21.42C128.49 21.61 128.7 21.85 128.87 22.13C130.56 24.87 132.17 27.84 133.79 30.64C133.95 30.93 134.05 31.23 134.09 31.55C134.13 31.87 134.11 32.2 134.03 32.5C133.95 32.81 133.81 33.1 133.61 33.36C133.42 33.61 133.18 33.82 132.9 33.99C130.67 35.37 128.25 36.68 125.96 38C125.92 38.02 125.9 38.05 125.88 38.09C125.86 38.13 125.86 38.17 125.88 38.21L126.04 38.86C126.11 39.18 126.17 39.5 126.23 39.82C126.33 40.37 126.41 40.92 126.48 41.46C126.54 41.99 126.59 42.54 126.63 43.1C126.66 43.67 126.68 44.22 126.68 44.76C126.68 45.3 126.66 45.85 126.63 46.42C126.6 46.98 126.55 47.53 126.48 48.07C126.41 48.61 126.33 49.15 126.23 49.71C126.13 50.26 126.01 50.8 125.88 51.32C125.87 51.36 125.88 51.41 125.89 51.45C125.91 51.49 125.94 51.53 125.98 51.54C128.53 52.9 131.12 54.5 133.64 55.96L133.55 56.07L133.63 56.17C133.83 56.43 133.97 56.72 134.05 57.03C134.13 57.33 134.15 57.66 134.11 57.98C134.07 58.29 133.97 58.6 133.81 58.88L128.53 68.03L128.43 67.97C128.38 68.02 128.32 68.06 128.27 68.11C128.01 68.31 127.72 68.45 127.41 68.53C127.11 68.61 126.78 68.63 126.46 68.59C126.16 68.55 125.86 68.46 125.58 68.3C123.27 67.07 120.89 65.59 118.61 64.27C118.58 64.25 118.54 64.25 118.49 64.25C118.45 64.25 118.41 64.27 118.38 64.3C117.59 65.07 116.74 65.78 115.86 66.45C114.98 67.11 114.06 67.72 113.1 68.28C112.15 68.83 111.16 69.32 110.15 69.75C109.14 70.18 108.1 70.55 107.04 70.85C107 70.86 106.96 70.89 106.94 70.92C106.91 70.96 106.9 71 106.9 71.04V79.05C106.9 79.38 106.83 79.69 106.71 79.98C106.59 80.28 106.4 80.55 106.18 80.77C105.96 80.99 105.68 81.18 105.39 81.3C105.1 81.42 104.79 81.49 104.46 81.49H94.6299C94.2999 81.49 93.9899 81.42 93.6999 81.3C93.3999 81.18 93.1299 80.99 92.9099 80.77C92.6899 80.55 92.4999 80.28 92.3799 79.98C92.2599 79.69 92.1899 79.38 92.1899 79.05V71.04C92.1899 71.04 92.1799 70.95 92.1499 70.92C92.1299 70.89 92.0899 70.86 92.0399 70.85H92.0099C90.9399 70.53 89.9099 70.16 88.9199 69.74C87.9099 69.31 86.9299 68.82 85.9899 68.28C85.0299 67.72 84.1099 67.11 83.2299 66.45C82.3499 65.79 81.5099 65.07 80.7099 64.3C80.6799 64.27 80.6399 64.25 80.5999 64.25C80.5599 64.25 80.5099 64.25 80.4699 64.28L73.5299 68.28C73.2399 68.44 72.9399 68.54 72.6299 68.58C72.3099 68.62 71.9799 68.6 71.6799 68.52C71.3799 68.44 71.0799 68.3 70.8199 68.1C70.5799 67.92 70.3699 67.68 70.1999 67.41C68.3799 64.48 66.6599 61.27 64.9199 58.26L65.0099 58.2C64.9899 58.12 64.9799 58.05 64.9699 57.97C64.9299 57.65 64.9499 57.33 65.0299 57.02C65.1099 56.72 65.2499 56.42 65.4499 56.16C65.6399 55.91 65.8799 55.7 66.1599 55.53L73.0999 51.52C73.0999 51.52 73.1599 51.47 73.1799 51.43C73.1999 51.39 73.1999 51.35 73.1899 51.31L73.0099 50.58H73.0199C72.9599 50.29 72.8999 50 72.8399 49.71C72.7399 49.16 72.6599 48.61 72.5899 48.07C72.5299 47.54 72.4799 46.99 72.4399 46.42C72.4099 45.85 72.3899 45.3 72.3899 44.76C72.3899 44.22 72.4099 43.67 72.4399 43.1C72.4699 42.54 72.5199 41.99 72.5899 41.45C72.6599 40.92 72.7399 40.37 72.8399 39.81C72.9399 39.26 73.0599 38.72 73.1899 38.2C73.1999 38.16 73.1899 38.11 73.1799 38.07C73.1599 38.03 73.1299 38 73.0899 37.98L66.1599 33.98C65.8699 33.82 65.6299 33.6 65.4499 33.35C65.2499 33.09 65.1099 32.8 65.0299 32.49C64.9499 32.19 64.9299 31.86 64.9699 31.54C65.0099 31.24 65.1099 30.94 65.2599 30.66C66.9099 27.6 68.7999 24.52 70.5499 21.49L70.6499 21.55C70.6999 21.5 70.7599 21.46 70.8099 21.42C71.0699 21.22 71.3599 21.08 71.6699 21C71.9799 20.92 72.2999 20.89 72.6199 20.94C72.9299 20.98 73.2399 21.08 73.5199 21.24L74.0299 21.54L80.4699 25.26C80.5099 25.28 80.5499 25.29 80.5899 25.28C80.6299 25.28 80.6699 25.25 80.6999 25.23L80.7199 25.21C81.5099 24.45 82.3499 23.74 83.2299 23.07C84.1099 22.41 85.0299 21.8 85.9699 21.25C86.9199 20.7 87.9099 20.21 88.9199 19.78C89.9299 19.35 90.9699 18.98 92.0299 18.68C92.0699 18.67 92.1099 18.64 92.1299 18.61C92.1599 18.57 92.1699 18.53 92.1699 18.49V10.48C92.1699 10.15 92.2399 9.84001 92.3599 9.55001C92.4799 9.25001 92.6699 8.98001 92.8899 8.76001C93.1199 8.54001 93.3899 8.35001 93.6799 8.23001C93.9699 8.11001 94.2799 8.04001 94.6099 8.04001H104.44C104.77 8.04001 105.08 8.11001 105.37 8.23001C105.67 8.35001 105.94 8.54001 106.17 8.76001C106.61 9.20001 106.89 9.81001 106.89 10.49V18.5C106.89 18.5 106.91 18.59 106.93 18.62C106.95 18.65 106.99 18.68 107.04 18.69H107.07C108.14 19.01 109.17 19.38 110.16 19.8L110.14 19.78Z" fill="#CEE3F0"/>
<path fill-rule="evenodd" clip-rule="evenodd" d="M377.07 115.96C379.05 115.96 380.67 114.34 380.67 112.36C380.67 110.38 379.05 108.76 377.07 108.76C375.09 108.76 373.47 110.38 373.47 112.36C373.47 114.34 375.09 115.96 377.07 115.96Z" fill="white"/>
<path fill-rule="evenodd" clip-rule="evenodd" d="M47.9101 258.96C46.3501 257.4 44.2001 256.44 41.8301 256.44C39.4601 256.44 37.3101 257.4 35.7501 258.96C34.1901 260.52 33.2301 262.67 33.2301 265.04C33.2301 267.41 34.1901 269.56 35.7501 271.12C37.3001 272.68 39.4501 273.64 41.8301 273.64C44.2101 273.64 46.3501 272.68 47.9101 271.12C49.4601 269.57 50.4301 267.41 50.4301 265.04C50.4301 262.67 49.4701 260.52 47.9101 258.96ZM46.0501 250.44C47.2401 250.78 48.3701 251.27 49.4201 251.87C50.5001 252.49 51.4901 253.24 52.3801 254.1C52.5501 254.27 52.8101 254.29 53.0101 254.18L57.0101 251.87H57.0301C57.2601 251.73 57.5201 251.71 57.7601 251.77C58.0101 251.84 58.2301 251.99 58.3601 252.23L58.3801 252.26L61.1901 257.13C61.3201 257.36 61.3501 257.64 61.2901 257.88C61.2201 258.13 61.0701 258.35 60.8301 258.48L60.8001 258.5L56.8401 260.79C56.6301 260.91 56.5401 261.15 56.5901 261.37C56.7401 261.96 56.8501 262.57 56.9301 263.19C57.0001 263.79 57.0401 264.41 57.0401 265.04C57.0401 265.67 57.0001 266.29 56.9301 266.89C56.8501 267.51 56.7401 268.12 56.5901 268.71C56.5301 268.95 56.6501 269.2 56.8701 269.31L60.8301 271.6C61.0701 271.74 61.2301 271.96 61.2901 272.2C61.3501 272.45 61.3301 272.72 61.1901 272.95L58.3601 277.85C58.2301 278.09 58.0101 278.24 57.7601 278.31C57.5101 278.38 57.2401 278.35 57.0101 278.21H56.9801L53.0101 275.9C52.8001 275.78 52.5501 275.82 52.3801 275.98C51.4901 276.84 50.5001 277.59 49.4201 278.21C48.3701 278.82 47.2301 279.31 46.0301 279.65C45.8001 279.72 45.6501 279.93 45.6501 280.16V284.77C45.6501 285.04 45.5401 285.29 45.3601 285.47C45.1801 285.65 44.9301 285.76 44.6601 285.76H39.0101C38.7401 285.76 38.4901 285.65 38.3101 285.47C38.1301 285.29 38.0201 285.05 38.0201 284.77V280.16C38.0201 279.91 37.8501 279.7 37.6101 279.65C36.4201 279.31 35.2901 278.82 34.2401 278.22C33.1701 277.6 32.1701 276.85 31.2801 275.99C31.1001 275.82 30.8201 275.8 30.6201 275.93L26.6501 278.22C26.4201 278.36 26.1501 278.38 25.9001 278.32C25.6501 278.25 25.4301 278.1 25.3001 277.86L25.2801 277.83L22.4701 272.96C22.3301 272.73 22.3101 272.46 22.3701 272.21C22.4401 271.96 22.5901 271.74 22.8301 271.61L26.8201 269.3C27.0301 269.18 27.1201 268.94 27.0701 268.72C26.9301 268.13 26.8101 267.52 26.7401 266.9C26.6701 266.3 26.6301 265.68 26.6301 265.05C26.6301 264.42 26.6701 263.8 26.7401 263.2C26.8101 262.58 26.9301 261.97 27.0701 261.39C27.1301 261.14 27.0101 260.9 26.7901 260.79L22.8301 258.5C22.6001 258.37 22.4401 258.14 22.3701 257.9C22.3001 257.65 22.3301 257.38 22.4701 257.15L22.4901 257.12L25.3001 252.25C25.4401 252.01 25.6601 251.86 25.9001 251.79C26.1501 251.72 26.4201 251.75 26.6501 251.89L30.6401 254.2C30.8501 254.32 31.1201 254.28 31.2801 254.11C32.1701 253.26 33.1501 252.51 34.2301 251.89C35.2801 251.28 36.4201 250.79 37.6201 250.45C37.8501 250.38 38.0001 250.17 38.0001 249.94V245.33C38.0001 245.06 38.1101 244.81 38.2901 244.63C38.4701 244.45 38.7201 244.34 38.9901 244.34H44.6401C44.9101 244.34 45.1601 244.45 45.3401 244.63C45.5201 244.81 45.6301 245.06 45.6301 245.33V249.94C45.6301 250.19 45.8001 250.4 46.0401 250.45L46.0501 250.44Z" fill="#AFCADC"/>
<path d="M198.5 57.49H202.65C203.65 57.49 204.47 58.3 204.47 59.31V63.47C204.47 64.47 203.66 65.29 202.65 65.29H198.49C197.49 65.29 196.67 64.48 196.67 63.47V59.31C196.67 58.31 197.49 57.49 198.49 57.49H198.5Z" fill="#7FA6C2"/>
<path d="M212.92 57.49H217.08C218.08 57.49 218.9 58.3 218.9 59.31V63.47C218.9 64.47 218.09 65.29 217.08 65.29H212.92C211.92 65.29 211.1 64.48 211.1 63.47V59.31C211.1 58.31 211.91 57.49 212.92 57.49Z" fill="white"/>
<path d="M227.34 57.49H231.49C232.49 57.49 233.31 58.31 233.31 59.31V63.47C233.31 64.47 232.5 65.29 231.49 65.29H227.33C226.33 65.29 225.51 64.48 225.51 63.47V59.31C225.51 58.31 226.33 57.49 227.33 57.49H227.34Z" fill="#7FA6C2"/>
<path d="M241.76 57.49H245.91C246.91 57.49 247.73 58.31 247.73 59.31V63.47C247.73 64.47 246.92 65.29 245.91 65.29H241.75C240.75 65.29 239.93 64.48 239.93 63.47V59.31C239.93 58.31 240.75 57.49 241.75 57.49H241.76Z" fill="white"/>
<path d="M256.18 57.49H260.33C261.33 57.49 262.15 58.31 262.15 59.31V63.47C262.15 64.47 261.34 65.29 260.33 65.29H256.17C255.17 65.29 254.35 64.48 254.35 63.47V59.31C254.35 58.31 255.17 57.49 256.17 57.49H256.18Z" fill="#7FA6C2"/>
<path d="M232.01 41.77H227.86C226.855 41.77 226.04 42.5848 226.04 43.59V47.74C226.04 48.7452 226.855 49.56 227.86 49.56H232.01C233.015 49.56 233.83 48.7452 233.83 47.74V43.59C233.83 42.5848 233.015 41.77 232.01 41.77Z" fill="white"/>
<path d="M246.43 41.77H242.28C241.275 41.77 240.46 42.5848 240.46 43.59V47.74C240.46 48.7452 241.275 49.56 242.28 49.56H246.43C247.435 49.56 248.25 48.7452 248.25 47.74V43.59C248.25 42.5848 247.435 41.77 246.43 41.77Z" fill="#7FA6C2"/>
<path d="M256.7 41.77H260.86C261.86 41.77 262.68 42.59 262.68 43.59V47.75C262.68 48.75 261.87 49.57 260.86 49.57H256.7C255.7 49.57 254.88 48.76 254.88 47.75V43.59C254.88 42.59 255.69 41.77 256.7 41.77Z" fill="white"/>
<path fill-rule="evenodd" clip-rule="evenodd" d="M565.04 52.83C565.04 52.3 565.47 51.87 566 51.87C566.53 51.87 566.96 52.3 566.96 52.83V57.15C566.96 57.68 566.53 58.11 566 58.11C565.47 58.11 565.04 57.68 565.04 57.15V52.83ZM558.5 56.34C558.12 55.96 558.12 55.36 558.5 54.98C558.88 54.6 559.48 54.6 559.86 54.98L562.91 58.03C563.28 58.41 563.28 59.01 562.91 59.39C562.54 59.77 561.93 59.77 561.55 59.39L558.5 56.34ZM556.35 63.44C555.82 63.44 555.39 63.01 555.39 62.48C555.39 61.95 555.82 61.52 556.35 61.52H560.67C561.2 61.52 561.63 61.95 561.63 62.48C561.63 63.01 561.2 63.44 560.67 63.44H556.35ZM559.85 69.98C559.48 70.36 558.87 70.36 558.49 69.98C558.11 69.6 558.11 69 558.49 68.62L561.54 65.57C561.91 65.2 562.52 65.2 562.9 65.57C563.27 65.95 563.27 66.55 562.9 66.93L559.85 69.98ZM566.95 72.13C566.95 72.66 566.52 73.09 565.99 73.09C565.46 73.09 565.03 72.66 565.03 72.13V67.81C565.03 67.28 565.46 66.85 565.99 66.85C566.52 66.85 566.95 67.28 566.95 67.81V72.13ZM573.49 68.62C573.86 69 573.86 69.6 573.49 69.98C573.12 70.36 572.51 70.36 572.13 69.98L569.08 66.93C568.71 66.56 568.71 65.95 569.08 65.57C569.45 65.2 570.06 65.2 570.44 65.57L573.49 68.62ZM575.64 61.52C576.17 61.52 576.6 61.95 576.6 62.48C576.6 63.01 576.17 63.44 575.64 63.44H571.32C570.79 63.44 570.36 63.01 570.36 62.48C570.36 61.95 570.79 61.52 571.32 61.52H575.64ZM572.13 54.98C572.5 54.6 573.11 54.6 573.49 54.98C573.87 55.36 573.86 55.96 573.49 56.34L570.44 59.39C570.07 59.77 569.46 59.77 569.08 59.39C568.7 59.01 568.71 58.41 569.08 58.03L572.13 54.98Z" fill="#7FA6C2"/>
<path fill-rule="evenodd" clip-rule="evenodd" d="M36.9901 315.14C36.9901 314.61 37.4201 314.18 37.9501 314.18C38.4801 314.18 38.9101 314.61 38.9101 315.14V319.46C38.9101 319.99 38.4801 320.42 37.9501 320.42C37.4201 320.42 36.9901 319.99 36.9901 319.46V315.14ZM30.4501 318.65C30.0801 318.27 30.0801 317.67 30.4501 317.29C30.8301 316.91 31.4301 316.91 31.8101 317.29L34.8601 320.34C35.2301 320.72 35.2301 321.32 34.8601 321.7C34.4801 322.08 33.8801 322.08 33.5001 321.7L30.4501 318.65ZM28.3001 325.75C27.7701 325.75 27.3401 325.32 27.3401 324.79C27.3401 324.26 27.7701 323.83 28.3001 323.83H32.6201C33.1501 323.83 33.5801 324.26 33.5801 324.79C33.5801 325.32 33.1501 325.75 32.6201 325.75H28.3001ZM31.8101 332.29C31.4301 332.67 30.8301 332.67 30.4501 332.29C30.0801 331.91 30.0801 331.31 30.4501 330.93L33.5001 327.88C33.8801 327.51 34.4801 327.51 34.8601 327.88C35.2301 328.26 35.2301 328.86 34.8601 329.24L31.8101 332.29ZM38.9201 334.44C38.9201 334.97 38.4901 335.4 37.9601 335.4C37.4301 335.4 37.0001 334.97 37.0001 334.44V330.12C37.0001 329.59 37.4301 329.16 37.9601 329.16C38.4901 329.16 38.9201 329.59 38.9201 330.12V334.44ZM45.4601 330.93C45.8301 331.31 45.8301 331.91 45.4601 332.29C45.0801 332.67 44.4801 332.67 44.1001 332.29L41.0501 329.24C40.6801 328.87 40.6801 328.26 41.0501 327.88C41.4301 327.51 42.0301 327.51 42.4101 327.88L45.4601 330.93ZM47.6101 323.83C48.1401 323.83 48.5701 324.26 48.5701 324.79C48.5701 325.32 48.1401 325.75 47.6101 325.75H43.2901C42.7601 325.75 42.3301 325.32 42.3301 324.79C42.3301 324.26 42.7601 323.83 43.2901 323.83H47.6101ZM44.1001 317.29C44.4801 316.91 45.0801 316.91 45.4601 317.29C45.8301 317.67 45.8301 318.27 45.4601 318.65L42.4101 321.7C42.0301 322.08 41.4301 322.08 41.0501 321.7C40.6801 321.32 40.6801 320.72 41.0501 320.34L44.1001 317.29Z" fill="#7FA6C2"/>
<path fill-rule="evenodd" clip-rule="evenodd" d="M116.48 186.25C118.46 186.25 120.08 184.63 120.08 182.65C120.08 180.67 118.46 179.05 116.48 179.05C114.5 179.05 112.88 180.67 112.88 182.65C112.88 184.63 114.5 186.25 116.48 186.25Z" fill="white"/>
<path fill-rule="evenodd" clip-rule="evenodd" d="M185.05 21.67C187.03 21.67 188.65 20.05 188.65 18.07C188.65 16.09 187.03 14.47 185.05 14.47C183.07 14.47 181.45 16.09 181.45 18.07C181.45 20.05 183.07 21.67 185.05 21.67Z" fill="white"/>
<path fill-rule="evenodd" clip-rule="evenodd" d="M418.22 25.1C420.2 25.1 421.82 23.48 421.82 21.5C421.82 19.52 420.2 17.9 418.22 17.9C416.24 17.9 414.62 19.52 414.62 21.5C414.62 23.48 416.24 25.1 418.22 25.1Z" fill="white"/>
<path fill-rule="evenodd" clip-rule="evenodd" d="M570.8 122.82C572.78 122.82 574.4 121.2 574.4 119.22C574.4 117.24 572.78 115.62 570.8 115.62C568.82 115.62 567.2 117.24 567.2 119.22C567.2 121.2 568.82 122.82 570.8 122.82Z" fill="white"/>
<path fill-rule="evenodd" clip-rule="evenodd" d="M541.66 223.97C543.64 223.97 545.26 222.35 545.26 220.37C545.26 218.39 543.64 216.77 541.66 216.77C539.68 216.77 538.06 218.39 538.06 220.37C538.06 222.35 539.68 223.97 541.66 223.97Z" fill="white"/>
<path fill-rule="evenodd" clip-rule="evenodd" d="M129.73 365.75H407.83V205.9L268.78 124.54L129.73 205.9V365.75Z" fill="#DE9C00"/>
<path fill-rule="evenodd" clip-rule="evenodd" d="M177.48 321.47H360.08C364.73 321.47 368.54 317.66 368.54 313.01V153.02L318.61 100.41H177.48C172.83 100.41 169.02 104.21 169.02 108.87V313.01C169.02 317.66 172.83 321.47 177.48 321.47Z" fill="white"/>
<path fill-rule="evenodd" clip-rule="evenodd" d="M177.48 326.21H360.08C364.73 326.21 368.54 322.4 368.54 317.75V228.11L294.68 280.28L268.78 298.58L242.88 280.28L169.02 228.11V317.75C169.02 322.4 172.83 326.21 177.48 326.21Z" fill="#E5E5E6"/>
<path fill-rule="evenodd" clip-rule="evenodd" d="M368.54 161.17V153.03L326.54 108.77V152.71C326.54 157.36 330.35 161.17 335 161.17H368.54Z" fill="#F0F1F1"/>
<path fill-rule="evenodd" clip-rule="evenodd" d="M318.61 100.42V144.57C318.61 149.22 322.42 153.03 327.07 153.03H368.54L318.61 100.42Z" fill="#A3C1D5"/>
<path fill-rule="evenodd" clip-rule="evenodd" d="M129.73 205.9L242.88 285.82L129.73 365.75V205.9Z" fill="#FBC900"/>
<path fill-rule="evenodd" clip-rule="evenodd" d="M407.83 205.9L294.68 285.82L407.83 365.75V205.9Z" fill="#FBC900"/>
<path fill-rule="evenodd" clip-rule="evenodd" d="M407.83 365.75L294.68 285.83L268.78 304.12L242.88 285.82L129.73 365.75H407.83Z" fill="#F6AF00"/>
<path fill-rule="evenodd" clip-rule="evenodd" d="M183.55 169.89H354.01C354.91 169.89 355.64 170.62 355.64 171.52C355.64 172.42 354.91 173.15 354.01 173.15H183.55C182.65 173.15 181.92 172.42 181.92 171.52C181.92 170.62 182.65 169.89 183.55 169.89Z" fill="#DBDCDC"/>
<path fill-rule="evenodd" clip-rule="evenodd" d="M183.55 183.82H354.01C354.91 183.82 355.64 184.55 355.64 185.45C355.64 186.35 354.91 187.08 354.01 187.08H183.55C182.65 187.08 181.92 186.35 181.92 185.45C181.92 184.55 182.65 183.82 183.55 183.82Z" fill="#DBDCDC"/>
<path fill-rule="evenodd" clip-rule="evenodd" d="M183.55 197.75H354.01C354.91 197.75 355.64 198.48 355.64 199.38C355.64 200.28 354.91 201.01 354.01 201.01H183.55C182.65 201.01 181.92 200.27 181.92 199.38C181.92 198.48 182.65 197.75 183.55 197.75Z" fill="#DBDCDC"/>
<path fill-rule="evenodd" clip-rule="evenodd" d="M183.55 211.68H354.01C354.91 211.68 355.64 212.41 355.64 213.31C355.64 214.21 354.91 214.94 354.01 214.94H183.55C182.65 214.94 181.92 214.21 181.92 213.31C181.92 212.41 182.65 211.68 183.55 211.68Z" fill="#DBDCDC"/>
<path fill-rule="evenodd" clip-rule="evenodd" d="M183.55 225.61H354.01C354.91 225.61 355.64 226.34 355.64 227.24C355.64 228.14 354.91 228.87 354.01 228.87H183.55C182.65 228.87 181.92 228.14 181.92 227.24C181.92 226.34 182.65 225.61 183.55 225.61Z" fill="#DBDCDC"/>
<path d="M186.15 146.48H272.25C273.15 146.48 273.88 147.21 273.88 148.11C273.88 149.01 273.15 149.74 272.25 149.74H186.14C185.24 149.74 184.51 149.01 184.51 148.11C184.51 147.21 185.24 146.48 186.14 146.48H186.15Z" fill="#DBDCDC"/>
<path d="M281.38 146.48H293.12C294.02 146.48 294.75 147.21 294.75 148.11C294.75 149.01 294.02 149.74 293.12 149.74H281.38C280.48 149.74 279.75 149.01 279.75 148.11C279.75 147.21 280.48 146.48 281.38 146.48Z" fill="#DBDCDC"/>
<path fill-rule="evenodd" clip-rule="evenodd" d="M186.15 135.34H283.82C284.72 135.34 285.45 136.07 285.45 136.97C285.45 137.87 284.71 138.6 283.82 138.6H186.15C185.25 138.6 184.52 137.87 184.52 136.97C184.52 136.07 185.26 135.34 186.15 135.34Z" fill="#DBDCDC"/>
<path fill-rule="evenodd" clip-rule="evenodd" d="M187.14 116.29H204.25C205.69 116.29 206.87 117.47 206.87 118.91C206.87 120.36 205.69 121.53 204.25 121.53H187.14C185.69 121.53 184.51 120.35 184.51 118.91C184.51 117.47 185.69 116.29 187.14 116.29Z" fill="#DBDCDC"/>
<path fill-rule="evenodd" clip-rule="evenodd" d="M214.27 116.29H256.25C257.69 116.29 258.87 117.47 258.87 118.91C258.87 120.36 257.69 121.53 256.25 121.53H214.27C212.83 121.53 211.64 120.35 211.64 118.91C211.64 117.47 212.82 116.29 214.27 116.29Z" fill="#DBDCDC"/>
<path fill-rule="evenodd" clip-rule="evenodd" d="M543.45 244.89H395.94C391.84 244.89 388.48 248.56 388.48 253.04V357.46C388.48 361.94 391.84 365.61 395.94 365.61H543.45C547.56 365.61 550.91 361.94 550.91 357.46V253.04C550.91 248.56 547.55 244.89 543.45 244.89Z" fill="#915E40"/>
<path fill-rule="evenodd" clip-rule="evenodd" d="M531.67 253.28C525.57 253.28 520.62 258.69 520.62 265.35C520.62 272.01 525.57 277.42 531.67 277.42C537.77 277.42 542.72 272.02 542.72 265.35C542.72 258.68 537.77 253.28 531.67 253.28Z" fill="white"/>
<path fill-rule="evenodd" clip-rule="evenodd" d="M513.45 257.12H481.02C479.84 257.12 478.87 258.18 478.87 259.47C478.87 260.76 479.84 261.82 481.02 261.82H513.45C514.63 261.82 515.6 260.76 515.6 259.47C515.6 258.18 514.63 257.12 513.45 257.12Z" fill="white"/>
<path fill-rule="evenodd" clip-rule="evenodd" d="M506.39 267.78H489.67C488.49 267.78 487.52 268.84 487.52 270.13C487.52 271.42 488.49 272.48 489.67 272.48H506.39C507.57 272.48 508.54 271.42 508.54 270.13C508.54 268.84 507.57 267.78 506.39 267.78Z" fill="white"/>
<path fill-rule="evenodd" clip-rule="evenodd" d="M513.24 267.78H513.46C514.64 267.78 515.61 268.84 515.61 270.13C515.61 271.42 514.64 272.48 513.46 272.48H513.24C512.06 272.48 511.09 271.42 511.09 270.13C511.09 268.84 512.06 267.78 513.24 267.78Z" fill="white"/>
<path fill-rule="evenodd" clip-rule="evenodd" d="M431.25 350.57H398.82C397.64 350.57 396.67 351.63 396.67 352.92C396.67 354.21 397.64 355.27 398.82 355.27H431.25C432.43 355.27 433.4 354.21 433.4 352.92C433.4 351.63 432.43 350.57 431.25 350.57Z" fill="white"/>
<path fill-rule="evenodd" clip-rule="evenodd" d="M538.64 283.39H400.75C398.5 283.39 396.67 285.4 396.67 287.85V339.91C396.67 342.36 398.51 344.37 400.75 344.37H538.64C540.89 344.37 542.72 342.36 542.72 339.91V287.85C542.72 285.39 540.88 283.39 538.64 283.39Z" fill="#BE865E"/>
<path fill-rule="evenodd" clip-rule="evenodd" d="M410.69 325.94L411.19 328.45C411.19 328.45 410.77 335.34 410.77 336.16C410.77 336.98 411.59 340.83 411.59 340.83C411.59 340.83 409.3 347.75 402.22 346.74C395.14 345.73 387.82 334.02 387.82 334.02C387.82 334.02 392.76 329.04 394.97 319.34C397.18 309.64 410.69 325.94 410.69 325.94Z" fill="#F0F1F1"/>
<path fill-rule="evenodd" clip-rule="evenodd" d="M484.74 206.01L478.79 197.75L432.13 216.28L429.04 219.37L431.61 226.1C431.61 226.1 477.09 222.79 484.75 206.01H484.74Z" fill="#020516"/>
<path fill-rule="evenodd" clip-rule="evenodd" d="M518.39 212.54C518.39 212.54 527.3 210.01 527.3 218.15C527.3 229.82 517.91 245.14 498.04 245.14C483.71 245.14 447.68 246.31 434.32 246.31C434.32 246.31 431.55 246.31 430.25 250.22C428.95 254.13 412.4 336.13 412.4 336.13C412.4 336.13 414.03 340.24 411.26 339.99C409.87 339.87 407.14 337.36 403.67 335.98C402.26 335.42 395.97 334.08 391.76 333.41C389.72 333.08 387.73 333.85 387.85 333.14C387.88 332.98 387.42 332.6 387.64 331.64C387.71 331.34 388.49 330.13 388.56 329.77C391.67 314.13 407.56 235.22 408.6 231.95C409.74 228.37 413.49 224.95 423.1 223.16C432.71 221.37 465.12 215.18 471.47 213.22C477.82 211.26 478.8 201.17 478.8 197.75C478.8 194.33 495.61 189.74 518.4 212.54H518.39Z" fill="#020516"/>
<path fill-rule="evenodd" clip-rule="evenodd" d="M414.73 365.53C414.73 365.53 350.09 366.1 348.11 365.53C346.12 364.97 345.26 363.89 345.26 361.47V356.28C345.26 355.14 345.52 353.68 347.18 352.53C348.15 351.85 349.61 351.46 351.78 350.79C357.64 348.97 365.54 348.19 369.94 347.24C374.34 346.29 382.24 335.39 383.29 334.7C384.35 334.01 387.45 334.01 390.62 334.01C393.79 334.01 398.93 334.18 400.47 337.82C402.02 341.45 408.59 341.96 411.08 340.84C411.08 340.84 413.49 340.67 414.07 342.32C414.64 343.96 414.32 355.38 414.48 356.59C414.64 357.8 414.11 358.36 414.11 358.36C414.11 358.36 415.21 359.18 415.41 359.57C415.61 359.96 415.69 361.04 415.69 362.17C415.69 363.3 415.83 365.46 414.72 365.54L414.73 365.53Z" fill="#131E3A"/>
<path fill-rule="evenodd" clip-rule="evenodd" d="M347.38 352.68C348.35 352.05 349.75 351.41 351.77 350.79C357.63 348.97 365.53 348.19 369.93 347.24C370.88 347.04 371.99 346.37 373.15 345.44L381.94 345.1L382.22 347.86C382.22 347.86 384.87 348.34 383.85 350.11C382.83 351.88 374.65 354.3 367.4 354.3H349.73C348.19 354.3 347.46 353.71 347.36 352.67L347.38 352.68Z" fill="#131E3A"/>
<path fill-rule="evenodd" clip-rule="evenodd" d="M414.73 365.53C414.73 365.53 411.29 365.57 404.12 365.62C398.09 364.01 392.78 362.22 392.78 362.22C392.78 362.22 402.88 348.21 402.31 346.91C401.74 345.61 394.57 339.3 394.57 339.3C394.57 339.3 395.61 337.41 397.08 334.84C398.56 335.39 399.83 336.3 400.47 337.81C402.02 341.44 408.59 341.95 411.08 340.83C411.08 340.83 413.49 340.66 414.07 342.31C414.64 343.95 414.32 355.37 414.48 356.58C414.64 357.79 414.11 358.35 414.11 358.35C414.11 358.35 415.21 359.17 415.41 359.56C415.61 359.95 415.69 361.03 415.69 362.16C415.69 363.29 415.83 365.45 414.72 365.53H414.73Z" fill="#131E3A"/>
<path fill-rule="evenodd" clip-rule="evenodd" d="M369.04 347.42C369.35 347.36 369.65 347.3 369.93 347.24C374.33 346.29 382.23 335.39 383.28 334.7C384.34 334.01 387.44 334.01 390.61 334.01C392.99 334.01 396.47 334.11 398.71 335.68C399.1 335.98 400.66 337.46 396.6 340.08C392.04 343.02 385.85 346.83 383.49 347.6C381.13 348.38 375.58 347.67 369.03 347.42H369.04Z" fill="#010B1C"/>
<path fill-rule="evenodd" clip-rule="evenodd" d="M348.05 358.35C349.88 358.88 407.56 358.41 414.09 358.35C414.09 358.35 415.17 359.17 415.37 359.56C415.57 359.95 415.65 361.03 415.65 362.16C415.65 363.29 415.79 365.45 414.69 365.53C414.69 365.53 350 366.1 348.05 365.53C346.11 364.97 345.26 363.89 345.26 361.47V356.28C345.26 355.98 345.28 355.68 345.33 355.38C345.57 357.05 346.43 357.88 348.05 358.35Z" fill="#AFB5BA"/>
<path fill-rule="evenodd" clip-rule="evenodd" d="M348.05 358.35C349.69 358.83 395.85 358.5 410.36 358.38C410.36 359.5 410.25 360.83 409.4 360.9C409.4 360.9 357.44 361.35 345.26 361.04V356.27C345.26 355.97 345.28 355.67 345.33 355.37C345.57 357.04 346.43 357.87 348.05 358.34V358.35Z" fill="#F2F9FC"/>
<path fill-rule="evenodd" clip-rule="evenodd" d="M385.64 335.23C385.47 335.08 385.52 334.76 385.76 334.51C386 334.26 386.34 334.18 386.51 334.32L389.13 336.5L395.61 335.27C395.9 335.22 396.08 335.4 396.02 335.69C395.95 335.97 395.67 336.25 395.38 336.3L390.1 337.3L392 338.87C392.18 339.02 392.12 339.34 391.89 339.59C391.83 339.65 391.77 339.7 391.7 339.74C391.58 339.94 391.36 340.1 391.15 340.14L385.87 341.14L387.77 342.71C387.94 342.86 387.89 343.18 387.65 343.43C387.5 343.59 387.3 343.69 387.13 343.69L381.42 344.77L382.94 346.28V346.29V346.31V346.33V346.34V346.36V346.38V346.45V346.47C382.94 346.47 382.94 346.53 382.92 346.56V346.59V346.6V346.61C382.92 346.63 382.9 346.66 382.89 346.68V346.69V346.7L382.86 346.75H382.85L382.83 346.79V346.81V346.82L382.81 346.84V346.85V346.86V346.87V346.88V346.89V346.9H382.8L382.79 346.92H382.78H382.77H382.76L382.75 346.93H382.74L382.73 346.95H382.72L382.71 346.96H382.7H382.69H382.68H382.67L382.66 346.97H382.65H382.64H382.63H382.62H382.61H382.6H382.58L382.57 346.98H382.56H382.55H382.54H382.53H382.52H382.51H382.49H382.47H382.45L373.94 345.95H373.93C373.93 345.95 373.85 345.94 373.82 345.93H373.79V345.91H373.77V345.89C373.77 345.89 373.75 345.87 373.73 345.86C373.67 345.79 373.65 345.69 373.67 345.57V345.54C373.69 345.45 373.73 345.36 373.79 345.28V345.27L373.82 345.23V345.22L373.86 345.18C373.86 345.18 373.89 345.14 373.91 345.13C374.01 345.04 374.14 344.97 374.26 344.94H374.29L379.31 343.98L377.66 342.34C377.5 342.18 377.57 341.86 377.82 341.62C377.97 341.47 378.15 341.39 378.31 341.39L383.53 340.4L381.63 338.83C381.45 338.68 381.51 338.36 381.74 338.11C381.8 338.05 381.86 338 381.93 337.96C382.05 337.76 382.27 337.6 382.49 337.56L387.77 336.56L385.87 334.99L385.64 335.23ZM380.84 345.98L379.91 345.06L377.31 345.55L380.84 345.98ZM386.03 342.92L384.26 341.45L379.05 342.44L380.58 343.96L386.04 342.93L386.03 342.92ZM390.53 339.28L388.51 337.6L382.87 338.67L384.89 340.35L390.53 339.28Z" fill="white"/>
<path fill-rule="evenodd" clip-rule="evenodd" d="M425.43 298.9C425.59 298.41 426.34 294.12 426.34 294.12C426.34 294.12 425.24 290.27 425.17 288.27C425.1 286.27 424.04 282.45 424.04 282.45L415.98 282.04L408.82 288.75C408.82 288.75 408.81 292.71 408.16 294.5C407.51 296.29 420.23 299.3 420.23 299.3L425.43 298.89V298.9Z" fill="#F0F1F1"/>
<path fill-rule="evenodd" clip-rule="evenodd" d="M456.47 199.71C436.28 200.58 398.68 184.52 400.77 218.82C402.11 240.81 406.15 277.55 407.28 288.41C407.49 290.41 406.71 291.58 406.71 291.58C406.71 291.58 407.04 292.76 408.26 292.68C408.26 292.68 419.02 291.38 426.02 293.9C426.02 293.9 428.13 294.22 428.37 292.75C428.4 292.55 427.65 290.52 427.81 288.06C428.84 272.84 431.99 222.44 431.99 222.44C451.21 218.76 478.78 220.57 478.78 197.75L456.47 199.71Z" fill="#020E28"/>
<path fill-rule="evenodd" clip-rule="evenodd" d="M389.53 329.66C389.53 329.66 404.09 327.95 410.24 327.22C416.39 326.5 418.45 324.53 421.8 320.94C425.15 317.35 429.26 312.6 429.97 311.61C430.67 310.63 430.57 308.67 430.44 307.58C430.31 306.49 429.2 305.43 429.2 305.43C429.2 305.43 428.51 299.52 428.29 297.7C428.08 295.88 427.08 294.4 426.35 294.12C426.35 294.12 424.26 295.51 420.59 294.96C416.92 294.41 417.3 292.07 413.82 292.48C410.34 292.89 410.26 292.9 407.75 293.19C405.24 293.48 403.08 295.3 402.49 297.91C401.89 300.52 401.88 303.15 399.7 306.28C397.53 309.41 389.45 319.46 388.46 320.81C387.47 322.16 386.67 323.32 386.85 324.86C387.03 326.4 387.08 326.84 387.19 327.73C387.29 328.62 388.03 329.84 389.55 329.67L389.53 329.66Z" fill="#131E3A"/>
<path fill-rule="evenodd" clip-rule="evenodd" d="M389.53 329.66C389.53 329.66 404.09 327.95 410.24 327.22C412.01 327.01 413.44 326.7 414.67 326.28C414.19 323.38 413.6 319.91 413.6 319.91C413.6 319.91 413.47 318.76 413.25 316.94C413.04 315.12 412.81 313.98 405.78 314.81L396.73 315.9C396.73 315.9 395.47 316.05 394.01 316.22C392.58 316.39 391.4 317.08 390.84 317.76L390.81 317.79C389.64 319.28 388.75 320.41 388.46 320.8C387.47 322.15 386.67 323.31 386.85 324.85C387.03 326.39 387.08 326.83 387.19 327.72C387.29 328.61 388.03 329.83 389.55 329.66H389.53Z" fill="#131E3A"/>
<path fill-rule="evenodd" clip-rule="evenodd" d="M424.93 317.5C427.32 314.82 429.47 312.3 429.97 311.61C430.67 310.63 430.57 308.67 430.44 307.58C430.31 306.49 429.2 305.43 429.2 305.43C429.2 305.43 428.51 299.52 428.29 297.7C428.08 295.88 427.08 294.4 426.35 294.12C426.35 294.12 424.26 295.51 420.59 294.96C417.4 294.48 417.26 292.65 415.01 292.45L413.18 297.27C413.18 297.27 421.2 299.57 421.97 299.84C422.74 300.12 423.47 301.06 423.2 303.96C422.93 306.86 422.07 317.7 422.07 317.7C422.07 317.7 423.23 317.62 424.94 317.49L424.93 317.5Z" fill="#131E3A"/>
<path fill-rule="evenodd" clip-rule="evenodd" d="M417.16 293.39L417.08 293.33C416.3 292.75 415.52 292.29 413.83 292.49C410.35 292.9 410.27 292.91 407.76 293.2C405.25 293.49 403.09 295.31 402.5 297.92C402.32 298.71 402.19 299.5 402.04 300.31C402.04 300.31 401.82 304.58 401.09 305.69C400.36 306.8 396.94 312.74 395.82 314.18C394.7 315.62 396.74 315.9 396.74 315.9C396.74 315.9 400.14 315.5 404.1 315.03C408.06 314.56 409.25 314.18 410.41 312.89C411.57 311.61 414.9 306.5 415.99 304.89C417.07 303.29 417.37 300.26 418.01 297.27C418.55 294.73 417.51 293.65 417.19 293.38L417.16 293.39Z" fill="#010B1C"/>
<path fill-rule="evenodd" clip-rule="evenodd" d="M421.04 314.47C417.69 318.06 415.63 320.03 409.48 320.75C403.33 321.47 388.78 323.19 388.78 323.19C388.11 323.27 387.59 323.07 387.21 322.75C386.91 323.4 386.75 324.08 386.84 324.85C387.02 326.39 387.07 326.83 387.18 327.72C387.28 328.61 388.02 329.83 389.54 329.66C389.54 329.66 404.1 327.95 410.25 327.22C416.4 326.5 418.46 324.53 421.81 320.94C425.16 317.35 429.27 312.6 429.98 311.61C430.68 310.63 430.58 308.67 430.45 307.58C430.32 306.49 429.21 305.43 429.21 305.43C429.21 305.43 429.21 305.34 429.18 305.19C428.38 306.27 424.34 310.93 421.05 314.47H421.04Z" fill="#AFB5BA"/>
<path fill-rule="evenodd" clip-rule="evenodd" d="M421.04 314.47C417.69 318.06 415.63 320.03 409.48 320.75C403.33 321.47 388.78 323.19 388.78 323.19C388.11 323.27 387.59 323.07 387.21 322.75C386.91 323.4 386.75 324.08 386.84 324.85L387.01 326.34C414.8 322.88 415.8 323.32 420.51 318.3C422.64 316.03 425.31 313.09 427.54 310.28C428.72 308.79 428.17 306.47 426.38 308.54C424.8 310.35 422.82 312.57 421.05 314.47H421.04Z" fill="#F2F9FC"/>
<path fill-rule="evenodd" clip-rule="evenodd" d="M404.63 299.23C404.31 299.12 404.13 298.78 404.24 298.45C404.34 298.13 404.69 297.95 405.01 298.06L409.83 299.62L416.8 296.64C417.11 296.51 417.47 296.65 417.61 296.96C417.74 297.27 417.6 297.63 417.29 297.77L411.61 300.2L415.09 301.33C415.41 301.44 415.59 301.78 415.49 302.1C415.46 302.18 415.42 302.25 415.37 302.31C415.37 302.55 415.23 302.77 415 302.87L409.32 305.3L412.8 306.43C413.12 306.53 413.3 306.88 413.19 307.2C413.12 307.41 412.95 307.56 412.75 307.61L406.61 310.23L409.59 311.39H409.61H409.62V311.4H409.63V311.42H409.64V311.44L409.65 311.46H409.66V311.48H409.67L409.7 311.53L409.72 311.56V311.57V311.58V311.59C409.73 311.62 409.74 311.64 409.75 311.67V311.7V311.71V311.72C409.75 311.75 409.76 311.77 409.76 311.8V311.82V311.89V311.91V311.94V311.96V311.97V311.99V312.02V312.04V312.06V312.07V312.09V312.1V312.11V312.12V312.13V312.15V312.16V312.18V312.19V312.2V312.22V312.23V312.24V312.26V312.28V312.29H409.75L409.74 312.31H409.73L409.72 312.33H409.71H409.7L409.69 312.34H409.68H409.67H409.66L409.63 312.36H409.62L409.61 312.37H409.6H409.59H409.58H409.57H409.56H409.55H409.53L398.42 313.55H398.4C398.4 313.55 398.3 313.56 398.25 313.55H398.23H398.19H398.18H398.15V313.54C398.15 313.54 398.11 313.52 398.08 313.51C397.96 313.45 397.85 313.35 397.79 313.22L397.78 313.19C397.74 313.09 397.72 312.99 397.73 312.89V312.88V312.84V312.83L397.75 312.77C397.75 312.77 397.77 312.72 397.78 312.7C397.84 312.58 397.94 312.47 398.06 312.41L398.09 312.4L403.49 310.09L400.26 308.83C399.95 308.71 399.79 308.35 399.91 308.04C399.99 307.85 400.15 307.72 400.33 307.67L405.95 305.27L402.47 304.14C402.15 304.03 401.97 303.69 402.08 303.36C402.11 303.28 402.15 303.21 402.2 303.15C402.2 302.91 402.34 302.68 402.57 302.59L408.25 300.16L404.77 299.03L404.63 299.23ZM406.8 311.64L404.99 310.93L402.19 312.13L406.8 311.64ZM410.83 307.1L407.58 306.05L401.97 308.45L404.96 309.62L410.83 307.11V307.1ZM413.59 302.14L409.88 300.94L403.82 303.53L407.53 304.73L413.59 302.14Z" fill="white"/>
<path fill-rule="evenodd" clip-rule="evenodd" d="M534.1 117.79C534.9 132.93 535.13 151.17 535.13 151.17C535.13 151.17 529.17 179.14 529.17 192.5C529.17 200.63 533.09 209.42 531.75 215.14C527.55 233.03 511.61 199.71 477.48 199.71H456.47C456.47 199.71 453.37 197.44 453.13 193.45C452.92 189.96 458.31 171.86 459.78 164.54C458.43 166.51 457.52 167.73 457.52 167.73C457.52 167.73 446.6 169.63 446.17 157.85C445.74 146.06 455.39 108.77 458.92 104.38C465.53 96.16 471.55 91.99 482.11 89.59C482.11 89.59 496.25 86.47 510.38 88.21C510.85 88.32 524.66 90.15 534.14 99.13C534.6 103.13 533.85 111.86 534.14 117.78H534.11L534.1 117.79Z" fill="#F18F2F"/>
<path fill-rule="evenodd" clip-rule="evenodd" d="M535.09 148.39C535.12 150.15 535.13 151.17 535.13 151.17C535.13 151.17 529.17 179.14 529.17 192.5C529.17 200.63 533.09 209.42 531.75 215.14C528.26 229.99 516.69 209.56 493.34 202.19C498.59 196.91 509.29 185.25 514.96 172.76C522.68 155.79 522.16 135.73 521.39 117.47C524.76 131.31 529.8 141.01 535.09 148.4V148.39Z" fill="#EB664C"/>
<path fill-rule="evenodd" clip-rule="evenodd" d="M466.16 137.58C468.73 114.18 466.42 107.75 466.42 107.75C466.42 107.75 460.96 142.35 456.08 153.92C451.2 165.49 449.19 161.5 450.99 161.5C452.79 161.5 466.68 164.33 466.68 161.24C466.68 158.15 466.16 137.58 466.16 137.58Z" fill="#EC6D3B" stroke="#EB664C" stroke-width="0.22" stroke-miterlimit="22.93"/>
<path fill-rule="evenodd" clip-rule="evenodd" d="M466.94 126.26C472.6 131.53 507.57 132.95 518.11 131.66L528.65 130.37L529.94 154.03C530.06 156.29 506.24 157.33 486.8 155.08C474.46 153.65 463.05 149.59 463.34 147.85L466.94 126.25V126.26Z" fill="white"/>
<path fill-rule="evenodd" clip-rule="evenodd" d="M521.8 131.21L525.57 130.75C526.68 133.57 527.87 136.17 529.11 138.57L529.95 154.03C530 154.95 526.05 155.67 520.05 156.05C521.52 147.93 521.89 139.51 521.81 131.21H521.8Z" fill="#DBDCDC"/>
<path fill-rule="evenodd" clip-rule="evenodd" d="M502.23 187.08C501.46 188.11 499.04 186.86 498.32 187.6C491.6 194.43 486.41 189.92 478.83 196.66C475.29 199.81 497.6 198.54 499.92 198.85L513.81 189.72L502.24 187.08H502.23Z" fill="#F4AD85"/>
<path fill-rule="evenodd" clip-rule="evenodd" d="M498.04 187.88C496.87 189.02 495.74 189.83 494.64 190.41C497.98 192.88 498.49 195.36 496.51 196.15C494.26 197.05 488.86 197.76 482.62 197.05C481.13 196.88 480.56 197.44 480.73 198.37C485.91 199.24 498.22 198.62 499.91 198.85L508.99 192.88C505.98 190.38 501.87 187.98 498.04 187.88Z" fill="#EA745D"/>
<path fill-rule="evenodd" clip-rule="evenodd" d="M512.59 88.58C514.43 89.02 512.52 94.93 510.56 98.67C502.02 114.99 483.64 109.86 483.64 89.8V89.23C485.65 88.72 485.99 88.55 487.47 88.22C496.7 87.56 503.58 86.43 512.59 88.58Z" fill="white"/>
<path fill-rule="evenodd" clip-rule="evenodd" d="M498.63 62.67C492.33 62.67 487.17 67.83 487.17 74.13V89.29C487.17 95.59 490.14 104.22 496.44 104.22C502.74 104.22 510.09 95.59 510.09 89.29V74.13C510.09 67.83 504.93 62.67 498.63 62.67Z" fill="#EB6B5D"/>
<path fill-rule="evenodd" clip-rule="evenodd" d="M488.48 217.43C488.48 217.43 444.93 227.13 442.96 227.78C440.99 228.44 439.18 231.23 439.68 236.98C440.17 242.73 442.97 238.08 455.13 238.9C467.29 239.72 493.75 239.18 500.81 235.92C507.88 232.66 510.67 231.39 508.04 223.34C505.41 215.29 494.89 215.94 488.48 217.42V217.43Z" fill="#020E28"/>
<path fill-rule="evenodd" clip-rule="evenodd" d="M543.55 131.97C544.07 140.55 544.66 149.64 543.82 157.15C543.16 163.14 541.26 168.22 540.08 170.6C538.83 173.13 515.27 192.62 507 199.15C506.01 199.93 504.73 201.49 504.75 200.89C504.94 193.21 502.24 194.08 496.13 189.5C503.27 182.84 520.93 166.76 523.47 158.71C523.47 158.71 524.54 156.35 523.9 149.07C523.26 141.78 522.14 116.88 522.23 113.06C522.32 109.24 522.95 102.07 525.71 98.62C528.86 97.1 531.66 97.11 533.84 98.93C540.74 104.68 543.05 123.9 543.54 131.97H543.55Z" fill="#F18F2F"/>
<path fill-rule="evenodd" clip-rule="evenodd" d="M498.19 190.92C497.55 190.5 496.87 190.03 496.14 189.49C503.28 182.83 520.94 166.75 523.48 158.7C523.48 158.7 524.55 156.34 523.91 149.06C523.27 141.77 522.15 116.87 522.24 113.05C522.27 111.89 522.34 110.42 522.52 108.84C523.47 107.8 524.03 107.23 524.03 107.23C524.03 107.23 530.46 146.32 530.2 153.01C529.95 159.42 520.26 172.43 498.19 190.93V190.92Z" fill="#F29A47"/>
<path d="M419.78 198.44H499.14C500.63 198.44 501.84 199.65 501.84 201.14C501.84 202.63 500.63 203.84 499.14 203.84H419.78C418.29 203.84 417.08 202.63 417.08 201.14C417.08 199.65 418.29 198.44 419.78 198.44Z" fill="#E62952"/>
<path fill-rule="evenodd" clip-rule="evenodd" d="M419.78 203.84H499.14C500.1 203.84 500.95 203.33 501.43 202.57C500.95 201.81 500.1 201.3 499.14 201.3H419.78C418.82 201.3 417.97 201.81 417.49 202.57C417.97 203.33 418.82 203.84 419.78 203.84Z" fill="#E62952"/>
<path fill-rule="evenodd" clip-rule="evenodd" d="M417.68 198.44H485.64C487.58 198.44 488.97 196.85 488.74 194.91L483.32 150.89C483.08 148.95 481.3 147.36 479.36 147.36H411.4C409.46 147.36 408.07 148.95 408.3 150.89L413.72 194.91C413.96 196.85 415.74 198.44 417.68 198.44Z" fill="#D10D49"/>
<path fill-rule="evenodd" clip-rule="evenodd" d="M417.68 198.44H483.63C485.57 198.44 486.96 196.85 486.72 194.91L481.3 150.89C481.06 148.95 479.28 147.36 477.34 147.36H411.39C409.45 147.36 408.06 148.95 408.29 150.89L413.71 194.91C413.95 196.85 415.73 198.44 417.67 198.44H417.68Z" fill="#E62952"/>
<path fill-rule="evenodd" clip-rule="evenodd" d="M421.27 198.44H428.06L481.63 153.47L481.31 150.89C481.22 150.12 480.88 149.4 480.38 148.82L421.27 198.44ZM472.67 147.36L414.23 196.41C413.96 195.95 413.77 195.44 413.7 194.91L412.86 188.06L461.35 147.36H472.66H472.67Z" fill="#E84B6B"/>
<path d="M489.3 198.44H499.13C500.62 198.44 501.83 199.65 501.83 201.14C501.83 202.63 500.62 203.84 499.13 203.84H489.29C487.8 203.84 486.59 202.63 486.59 201.14C486.59 199.65 487.8 198.44 489.29 198.44H489.3Z" fill="#D10D49"/>
<path fill-rule="evenodd" clip-rule="evenodd" d="M418.43 199.79H489.13C489.87 199.79 490.48 199.18 490.48 198.44C490.48 197.7 489.87 197.09 489.13 197.09H418.43C417.69 197.09 417.08 197.7 417.08 198.44C417.08 199.18 417.69 199.79 418.43 199.79Z" fill="#D10D49"/>
<path fill-rule="evenodd" clip-rule="evenodd" d="M446.12 166.12C449.87 166.12 453.22 169.16 453.6 172.9C453.98 176.65 451.26 179.68 447.51 179.68C443.76 179.68 440.41 176.64 440.03 172.9C439.97 172.31 439.99 171.75 440.07 171.2C440.74 171.83 441.64 172.23 442.59 172.23C444.44 172.23 445.79 170.73 445.6 168.88C445.5 167.89 444.98 167 444.23 166.39C444.82 166.21 445.45 166.12 446.12 166.12Z" fill="#FFFDF8"/>
<path fill-rule="evenodd" clip-rule="evenodd" d="M521.17 56.3C521.34 56.32 521.51 56.35 521.68 56.39C524.79 57.04 527.15 59.77 527.22 63.09C527.29 66.94 524.23 70.13 520.38 70.2C516.53 70.27 513.34 67.21 513.27 63.36C513.23 61.12 514.24 59.11 515.86 57.8C515.68 59.86 516.01 62.41 518.64 62.66L518.56 58.64C518.53 57.01 520.05 56.26 521.16 56.31L521.17 56.3Z" fill="#E8685B"/>
<path fill-rule="evenodd" clip-rule="evenodd" d="M470.82 56.3C470.65 56.32 470.48 56.35 470.31 56.39C467.2 57.04 464.84 59.77 464.77 63.09C464.7 66.94 467.76 70.13 471.61 70.2C475.46 70.27 478.64 67.21 478.72 63.36C478.76 61.12 477.75 59.11 476.13 57.8C476.31 59.86 475.98 62.41 473.35 62.66L473.43 58.64C473.46 57.01 471.94 56.26 470.83 56.31L470.82 56.3Z" fill="#E8685B"/>
<path fill-rule="evenodd" clip-rule="evenodd" d="M496 21.46C509.14 21.46 519.88 32.21 519.88 45.34V67.06C519.88 80.2 509.13 90.94 496 90.94C482.87 90.94 472.12 80.19 472.12 67.06V45.34C472.12 32.2 482.87 21.46 496 21.46Z" fill="#F4AD85"/>
<path fill-rule="evenodd" clip-rule="evenodd" d="M496 21.46C509.14 21.46 519.88 32.21 519.88 45.34V67.06C519.88 80.2 509.13 90.94 496 90.94C514.33 88.91 514.96 72.47 514.96 63.31C514.96 54.15 507.08 51.07 505.24 51.07H496.31C486.46 58.63 474.64 59.7 474.64 59.7L472.13 61.16L472.91 55.09L489.84 49.09C489.84 49.09 481.55 49.4 472.13 49.23V45.33C472.13 32.19 482.88 21.45 496.01 21.45L496 21.46Z" fill="#EF8871"/>
<path fill-rule="evenodd" clip-rule="evenodd" d="M501.18 73.56C501.31 76.97 498.66 79.85 495.25 79.98C491.84 80.11 488.96 77.46 488.83 74.05H488.84C488.82 73.46 489.28 72.97 489.86 72.94L500.06 72.54C500.65 72.52 501.14 72.98 501.17 73.56H501.18Z" fill="white"/>
<path fill-rule="evenodd" clip-rule="evenodd" d="M499.07 78.46C498.04 79.36 496.72 79.92 495.25 79.98C494.05 80.03 492.92 79.73 491.95 79.18C492.37 77.89 493.72 76.89 495.39 76.76C496.98 76.64 498.41 77.35 499.07 78.46Z" fill="white"/>
<path fill-rule="evenodd" clip-rule="evenodd" d="M489.73 72.95L499.31 72.57C499.5 73.62 499.06 74.72 498.35 74.98C497.49 75.3 490.55 75.39 490.04 74.86C489.79 74.61 489.72 73.76 489.72 72.95H489.73Z" fill="white"/>
<path fill-rule="evenodd" clip-rule="evenodd" d="M482.45 68.25C484.19 68.22 485.62 69.6 485.65 71.33C485.68 73.06 484.3 74.5 482.57 74.53C480.84 74.56 479.4 73.18 479.37 71.45C479.34 69.72 480.72 68.28 482.45 68.25Z" fill="#E8685B"/>
<path fill-rule="evenodd" clip-rule="evenodd" d="M509.47 67.73C511.2 67.7 512.64 69.08 512.67 70.81C512.7 72.54 511.32 73.98 509.59 74.01C507.86 74.04 506.42 72.66 506.39 70.93C506.36 69.2 507.74 67.76 509.47 67.73Z" fill="#E8685B"/>
<path fill-rule="evenodd" clip-rule="evenodd" d="M474.63 56.64V59.72C474.63 61.2 473.25 62.86 472.12 62.86V59.5C472.12 59.5 471.64 57.02 468.58 57.02C459.18 46.21 460.42 29.06 470.45 20.16C480.48 11.26 502.04 10.7 505.8 11.95C509.56 13.2 513.44 19.59 513.44 19.59C513.44 19.59 516.63 16.74 519.6 18.22C522.56 19.7 530.37 36.15 530.37 40.83C530.37 45.51 523.44 57.02 523.44 57.02C520.38 57.02 519.89 59.5 519.89 59.5V62.86C518.75 62.86 517.38 61.21 517.38 59.72V56.64C507.94 52.45 504.95 39.88 504.95 39.88C504.95 39.88 490.04 58.9 474.64 56.64H474.63Z" fill="#010C28"/>
<path fill-rule="evenodd" clip-rule="evenodd" d="M462.2 38.17C462.45 32.74 464.27 27.45 467.55 23.23C475.6 28.68 492.5 35.6 509.1 14.13C510.16 15.14 511.12 16.3 511.87 17.29C505.89 28.5 491.18 47.15 462.2 38.16V38.17Z" fill="#0F1630"/>
<path fill-rule="evenodd" clip-rule="evenodd" d="M474.63 56.64C473 57.34 473.73 67.42 471.89 67.42C471.37 64.76 471.66 57.01 468.57 57.01C464.85 52.73 462.8 47.47 462.29 42.11C473.29 53.16 499.44 43.2 505.89 34.96C505.89 34.96 516.8 46.61 530.32 40.74C530.38 41.09 530.41 41.4 530.41 41.66C530.41 46.34 523.42 57.01 523.42 57.01C521.55 57.01 521.15 63.74 519.87 67.1C518.73 67.1 517.36 61.2 517.36 59.72V56.64C507.92 52.45 504.93 39.88 504.93 39.88C504.93 39.88 490.02 58.9 474.62 56.64H474.63Z" fill="#020516"/>
<path fill-rule="evenodd" clip-rule="evenodd" d="M480.75 57.83C480.33 58.04 479.82 57.87 479.61 57.45C479.4 57.03 479.57 56.52 479.99 56.31C482.24 55.15 485.24 55.02 487.45 56.34C487.85 56.58 487.98 57.1 487.74 57.5C487.5 57.9 486.98 58.03 486.58 57.79C484.79 56.72 482.56 56.96 480.75 57.82V57.83Z" fill="#020516"/>
<path fill-rule="evenodd" clip-rule="evenodd" d="M511.25 57.83C509.44 56.97 507.2 56.73 505.42 57.8C505.02 58.04 504.5 57.91 504.26 57.51C504.02 57.11 504.15 56.59 504.55 56.35C506.75 55.03 509.76 55.16 512 56.32C512.42 56.53 512.59 57.04 512.38 57.46C512.17 57.88 511.66 58.05 511.25 57.84V57.83Z" fill="#020516"/>
<path d="M510.71 62.75C510.71 61.6123 509.788 60.69 508.65 60.69C507.512 60.69 506.59 61.6123 506.59 62.75V65.44C506.59 66.5777 507.512 67.5 508.65 67.5C509.788 67.5 510.71 66.5777 510.71 65.44V62.75Z" fill="#020516"/>
<path fill-rule="evenodd" clip-rule="evenodd" d="M483.35 60.69C482.21 60.69 481.29 61.62 481.29 62.75V65.44C481.29 66.57 482.22 67.5 483.35 67.5C484.48 67.5 485.41 66.57 485.41 65.44V62.75C485.41 61.62 484.48 60.69 483.35 60.69Z" fill="#020516"/>
<path fill-rule="evenodd" clip-rule="evenodd" d="M493.14 65.69C493.14 65.69 491.83 68.52 491.68 69.4C491.53 70.27 492.37 70.75 494.14 70.47C495.91 70.19 494.34 63.96 493.14 65.69Z" fill="#F8CAB0"/>
<path fill-rule="evenodd" clip-rule="evenodd" d="M518.49 56.7C517.73 55.82 516.27 54.68 515.41 54.02C515.19 53.84 514.96 53.67 514.72 53.51L514.7 53.5C513.02 52.38 511 51.72 508.82 51.72C505.89 51.72 503.24 52.91 501.32 54.83C500.39 55.7 499.59 56.65 498.77 57.58C497.72 58.76 497.1 58.18 496.05 58.18C495 58.18 494.38 58.76 493.33 57.58C492.5 56.65 491.7 55.7 490.78 54.83C488.86 52.91 486.18 51.72 483.25 51.72C481.07 51.72 478.92 52.38 477.34 53.5C477.34 53.5 477.37 53.5 477.36 53.5C477.12 53.66 476.91 53.83 476.69 54.01C475.82 54.66 474.33 55.8 473.57 56.69C473.2 57.12 472.67 57.42 472.14 57.63V61.75C472.37 62.42 472.64 63.65 473.01 64.91C473.16 65.51 473.38 66.09 473.63 66.65C473.87 67.2 474.14 67.71 474.45 68.13C476.35 71 479.6 72.89 483.29 72.89C487.58 72.89 491.27 70.34 492.94 66.67C492.94 66.67 492.94 66.67 492.94 66.66C492.94 66.65 492.96 66.63 492.96 66.62C493.72 65.33 494.49 61.8 494.83 61.23C495.18 60.66 496.05 60.62 496.05 60.62C496.05 60.62 496.92 60.66 497.27 61.23C497.62 61.79 498.38 65.33 499.14 66.62C499.14 66.63 499.16 66.65 499.17 66.66C499.17 66.66 499.17 66.66 499.17 66.67C500.83 70.34 504.53 72.89 508.82 72.89C512.52 72.89 515.77 70.99 517.66 68.13C517.97 67.71 518.24 67.2 518.47 66.65C518.72 66.09 518.93 65.52 519.08 64.91C519.42 63.74 519.67 62.61 519.88 61.91V57.61C519.36 57.4 518.86 57.11 518.49 56.68V56.7ZM483.27 71.46C478.22 71.46 474.12 67.36 474.12 62.31C474.12 57.26 478.22 53.16 483.27 53.16C488.32 53.16 492.42 57.26 492.42 62.31C492.42 67.36 488.32 71.46 483.27 71.46ZM508.82 71.46C503.77 71.46 499.67 67.36 499.67 62.31C499.67 57.26 503.77 53.16 508.82 53.16C513.87 53.16 517.97 57.26 517.97 62.31C517.97 67.36 513.87 71.46 508.82 71.46Z" fill="#020516"/>
</g>
<defs>
<clipPath id="clip0_105_2">
<rect width="633.49" height="419.17" fill="white"/>
</clipPath>
</defs>
</svg>
